<svg version="1.1" id="Layer_1" xmlns="http://www.w3.org/2000/svg" xmlns:xlink="http://www.w3.org/1999/xlink" x="0px" y="0px"
	 width="100%" viewBox="0 0 1168 405" enable-background="new 0 0 1168 405" xml:space="preserve">
<path fill="#39db90" opacity="1.000000" stroke="none" 
	d="
M873.000000,406.000000 
	C582.000000,406.000000 291.500000,406.000000 1.000000,406.000000 
	C1.000000,271.000000 1.000000,136.000000 1.000000,1.000000 
	C390.333344,1.000000 779.666687,1.000000 1169.000000,1.000000 
	C1169.000000,136.000000 1169.000000,271.000000 1169.000000,406.000000 
	C1070.500000,406.000000 972.000000,406.000000 873.000000,406.000000 
M898.500000,36.000000 
	C614.130676,36.000000 329.761383,36.000000 45.430618,36.000000 
	C45.430618,148.127731 45.430618,259.342224 45.430618,370.632019 
	C406.051056,370.632019 766.240784,370.632019 1126.657715,370.632019 
	C1126.657715,259.049530 1126.657715,147.835251 1126.657715,36.000000 
	C1050.711548,36.000000 975.105774,36.000000 898.500000,36.000000 
z"/>
<path fill="#39db90" opacity="1.000000" stroke="none" 
	d="
M115.000000,44.001144 
	C449.745270,44.001148 783.990540,44.001148 1118.617676,44.001148 
	C1118.617676,150.422882 1118.617676,256.304016 1118.617676,362.592285 
	C763.652161,362.592285 408.796448,362.592285 53.470856,362.592285 
	C53.470856,256.756012 53.470856,150.876526 53.470856,44.001144 
	C73.707069,44.001144 94.103531,44.001144 115.000000,44.001144 
M529.254517,140.500137 
	C529.254517,125.723846 529.254517,110.947563 529.254517,95.959564 
	C519.937622,95.959564 511.200409,95.959564 502.337616,95.959564 
	C502.337616,159.407532 502.337616,222.597610 502.337616,285.678040 
	C511.477783,285.678040 520.236755,285.678040 529.254761,285.678040 
	C529.254761,274.372620 529.212646,263.388641 529.302246,252.405746 
	C529.315063,250.842972 529.448120,248.725555 530.417419,247.827682 
	C533.654236,244.829269 537.296448,242.268478 541.022095,239.353134 
	C542.335327,241.429474 543.312683,242.947189 544.262939,244.481735 
	C552.145569,257.211304 559.983459,269.968964 567.959290,282.639862 
	C568.823181,284.012360 570.450623,285.810486 571.767395,285.847168 
	C581.521179,286.118896 591.286011,285.994354 601.948730,285.994354 
	C587.700073,264.988800 573.957947,244.730103 560.150696,224.375381 
	C572.827393,214.406372 585.063721,204.783615 597.580811,194.940125 
	C591.718628,189.883682 586.327515,185.233597 580.704163,180.383118 
	C563.675232,193.584473 546.841675,206.634415 529.254517,220.268539 
	C529.254517,193.130447 529.254517,167.315308 529.254517,140.500137 
M149.365936,138.499771 
	C149.365936,187.579514 149.365936,236.659256 149.365936,285.644287 
	C188.415985,285.644287 226.789642,285.644287 265.132874,285.644287 
	C265.132874,276.544922 265.132874,267.810059 265.132874,258.583160 
	C236.031982,258.583160 207.289276,258.583160 177.937195,258.583160 
	C177.937195,208.238052 177.937195,158.391571 177.937195,108.449310 
	C168.223434,108.449310 159.127609,108.449310 149.365967,108.449310 
	C149.365967,118.280182 149.365967,127.889969 149.365936,138.499771 
M664.254639,272.493500 
	C664.254639,250.728119 664.254639,228.962753 664.254639,206.693909 
	C675.365906,206.693909 685.769531,206.693909 696.076294,206.693909 
	C696.076294,198.459518 696.076294,190.742142 696.076294,182.407181 
	C685.277832,182.407181 674.883362,182.407181 664.886230,182.407181 
	C664.886230,166.128708 664.434021,150.468796 665.050964,134.851120 
	C665.438965,125.028198 671.562500,118.969101 680.704285,118.565796 
	C684.924438,118.379616 689.236572,120.276962 694.123352,121.367134 
	C697.302856,115.887955 700.997559,109.520920 704.663391,103.203651 
	C677.376099,84.889824 642.290527,99.422569 638.049866,131.022690 
	C636.048340,145.937164 637.219849,161.277878 636.963745,176.425629 
	C636.931030,178.358490 636.959290,180.292374 636.959290,182.799927 
	C630.756409,182.799927 625.183716,182.799927 619.535156,182.799927 
	C619.535156,191.116928 619.535156,198.844513 619.535156,207.064194 
	C625.453064,207.064194 631.035400,207.064194 637.123169,207.064194 
	C637.123169,233.616501 637.123169,259.674622 637.123169,285.705750 
	C646.409058,285.705750 655.165527,285.705750 664.254639,285.705750 
	C664.254639,281.438904 664.254639,277.465027 664.254639,272.493500 
M830.021729,275.500702 
	C851.299438,293.793579 886.726379,291.934265 906.050659,276.929504 
	C902.063232,270.481262 898.065979,264.017059 894.095459,257.596100 
	C870.637634,268.626282 854.907715,266.877991 845.109375,251.947433 
	C871.468140,243.040085 897.701660,234.175064 923.827637,225.346390 
	C919.101440,193.044357 893.908752,174.194244 861.609009,178.946014 
	C838.844421,182.295013 822.291992,194.732864 815.244446,216.828903 
	C808.310852,238.567505 812.677490,258.579224 830.021729,275.500702 
M954.971680,270.514709 
	C975.219238,293.774719 1014.339966,293.345428 1036.116821,276.998352 
	C1032.048218,270.464661 1027.969727,263.915009 1023.909912,257.395355 
	C1003.217651,269.126007 982.859802,266.738678 975.469116,251.815872 
	C1001.630981,242.981567 1027.753296,234.160599 1053.771484,225.374756 
	C1049.729736,192.304092 1019.715393,171.831360 987.282349,179.549698 
	C945.205811,189.563004 928.660828,235.199249 954.971680,270.514709 
M454.985931,187.492920 
	C447.849762,180.564621 438.956879,178.094009 429.406281,178.301361 
	C412.845459,178.660934 399.173370,184.996796 389.482544,200.544907 
	C388.720093,193.830597 388.114563,188.497971 387.510712,183.180511 
	C379.172882,183.180511 371.258362,183.180511 363.272308,183.180511 
	C363.272308,217.543976 363.272308,251.603378 363.272308,285.733032 
	C372.340729,285.733032 381.094543,285.733032 390.254242,285.733032 
	C390.254242,283.178833 390.231598,280.879303 390.257843,278.580292 
	C390.434601,263.091614 389.980774,247.560104 391.014038,232.128372 
	C391.801178,220.372711 397.159271,210.270279 408.041290,204.343094 
	C423.153931,196.111618 436.835388,204.278839 436.850281,221.326431 
	C436.867493,240.992310 436.854309,260.658234 436.854340,280.324127 
	C436.854340,282.095123 436.854340,283.866150 436.854340,285.745056 
	C446.177277,285.745056 454.923859,285.745056 463.917480,285.745056 
	C463.986542,284.711395 464.086060,283.914917 464.086304,283.118439 
	C464.093231,258.119446 464.150146,233.120193 464.054138,208.121552 
	C464.024109,200.299133 461.180023,193.502975 454.985931,187.492920 
M771.377197,209.721146 
	C777.949646,207.766937 784.522034,205.812744 791.874695,203.626541 
	C792.225708,196.001053 792.632446,187.165329 793.055237,177.979675 
	C783.972473,179.204453 776.436462,182.357544 770.050537,187.456833 
	C763.742981,192.493484 758.176758,198.458435 752.357178,203.948349 
	C751.793335,197.489029 751.178101,190.440918 750.551575,183.264328 
	C742.214050,183.264328 734.196899,183.264328 726.318115,183.264328 
	C726.318115,217.688309 726.318115,251.722229 726.318115,285.604309 
	C735.403503,285.604309 744.123901,285.604309 752.995300,285.604309 
	C752.995300,271.059387 752.954468,256.912659 753.006897,242.766312 
	C753.058960,228.720001 758.941833,217.788269 771.377197,209.721146 
M297.961151,247.500000 
	C297.961151,260.238892 297.961151,272.977783 297.961151,285.724457 
	C307.378845,285.724457 316.122986,285.724457 324.997986,285.724457 
	C324.997986,251.424240 324.997986,217.400543 324.997986,183.263199 
	C315.888824,183.263199 307.038696,183.263199 297.961151,183.263199 
	C297.961151,204.597977 297.961151,225.548981 297.961151,247.500000 
M308.521667,131.736633 
	C307.005402,132.369995 305.371613,132.813812 303.992798,133.668808 
	C297.209839,137.874786 294.830048,145.264481 298.085938,151.640701 
	C301.659363,158.638779 311.463593,162.118225 318.672852,158.946838 
	C326.115387,155.672836 329.501740,148.329041 326.966278,140.961243 
	C324.630798,134.174576 317.760529,130.472382 308.521667,131.736633 
z"/>
<path fill="#FFF" opacity="1.000000" stroke="none" 
	d="
M529.254517,141.000153 
	C529.254517,167.315308 529.254517,193.130447 529.254517,220.268539 
	C546.841675,206.634415 563.675232,193.584473 580.704163,180.383118 
	C586.327515,185.233597 591.718628,189.883682 597.580811,194.940125 
	C585.063721,204.783615 572.827393,214.406372 560.150696,224.375381 
	C573.957947,244.730103 587.700073,264.988800 601.948730,285.994354 
	C591.286011,285.994354 581.521179,286.118896 571.767395,285.847168 
	C570.450623,285.810486 568.823181,284.012360 567.959290,282.639862 
	C559.983459,269.968964 552.145569,257.211304 544.262939,244.481735 
	C543.312683,242.947189 542.335327,241.429474 541.022095,239.353134 
	C537.296448,242.268478 533.654236,244.829269 530.417419,247.827682 
	C529.448120,248.725555 529.315063,250.842972 529.302246,252.405746 
	C529.212646,263.388641 529.254761,274.372620 529.254761,285.678040 
	C520.236755,285.678040 511.477783,285.678040 502.337616,285.678040 
	C502.337616,222.597610 502.337616,159.407532 502.337616,95.959564 
	C511.200409,95.959564 519.937622,95.959564 529.254517,95.959564 
	C529.254517,110.947563 529.254517,125.723846 529.254517,141.000153 
z"/>
<path fill="#FFF" opacity="1.000000" stroke="none" 
	d="
M149.365952,137.999756 
	C149.365967,127.889969 149.365967,118.280182 149.365967,108.449310 
	C159.127609,108.449310 168.223434,108.449310 177.937195,108.449310 
	C177.937195,158.391571 177.937195,208.238052 177.937195,258.583160 
	C207.289276,258.583160 236.031982,258.583160 265.132874,258.583160 
	C265.132874,267.810059 265.132874,276.544922 265.132874,285.644287 
	C226.789642,285.644287 188.415985,285.644287 149.365936,285.644287 
	C149.365936,236.659256 149.365936,187.579514 149.365952,137.999756 
z"/>
<path fill="#FFF" opacity="1.000000" stroke="none" 
	d="
M664.254639,272.992310 
	C664.254639,277.465027 664.254639,281.438904 664.254639,285.705750 
	C655.165527,285.705750 646.409058,285.705750 637.123169,285.705750 
	C637.123169,259.674622 637.123169,233.616501 637.123169,207.064194 
	C631.035400,207.064194 625.453064,207.064194 619.535156,207.064194 
	C619.535156,198.844513 619.535156,191.116928 619.535156,182.799927 
	C625.183716,182.799927 630.756409,182.799927 636.959290,182.799927 
	C636.959290,180.292374 636.931030,178.358490 636.963745,176.425629 
	C637.219849,161.277878 636.048340,145.937164 638.049866,131.022690 
	C642.290527,99.422569 677.376099,84.889824 704.663391,103.203651 
	C700.997559,109.520920 697.302856,115.887955 694.123352,121.367134 
	C689.236572,120.276962 684.924438,118.379616 680.704285,118.565796 
	C671.562500,118.969101 665.438965,125.028198 665.050964,134.851120 
	C664.434021,150.468796 664.886230,166.128708 664.886230,182.407181 
	C674.883362,182.407181 685.277832,182.407181 696.076294,182.407181 
	C696.076294,190.742142 696.076294,198.459518 696.076294,206.693909 
	C685.769531,206.693909 675.365906,206.693909 664.254639,206.693909 
	C664.254639,228.962753 664.254639,250.728119 664.254639,272.992310 
z"/>
<path fill="#FFF" opacity="1.000000" stroke="none" 
	d="
M829.756714,275.261871 
	C812.677490,258.579224 808.310852,238.567505 815.244446,216.828903 
	C822.291992,194.732864 838.844421,182.295013 861.609009,178.946014 
	C893.908752,174.194244 919.101440,193.044357 923.827637,225.346390 
	C897.701660,234.175064 871.468140,243.040085 845.109375,251.947433 
	C854.907715,266.877991 870.637634,268.626282 894.095459,257.596100 
	C898.065979,264.017059 902.063232,270.481262 906.050659,276.929504 
	C886.726379,291.934265 851.299438,293.793579 829.756714,275.261871 
M865.470581,226.975967 
	C874.730408,223.629898 883.990173,220.283829 893.257935,216.934891 
	C887.482910,202.350342 874.610474,196.437027 859.630493,200.976624 
	C845.801331,205.167496 836.830322,220.945023 839.976318,235.990891 
	C848.243347,233.030121 856.469666,230.083923 865.470581,226.975967 
z"/>
<path fill="#FFF" opacity="1.000000" stroke="none" 
	d="
M954.734009,270.249390 
	C928.660828,235.199249 945.205811,189.563004 987.282349,179.549698 
	C1019.715393,171.831360 1049.729736,192.304092 1053.771484,225.374756 
	C1027.753296,234.160599 1001.630981,242.981567 975.469116,251.815872 
	C982.859802,266.738678 1003.217651,269.126007 1023.909912,257.395355 
	C1027.969727,263.915009 1032.048218,270.464661 1036.116821,276.998352 
	C1014.339966,293.345428 975.219238,293.774719 954.734009,270.249390 
M974.054504,234.581512 
	C990.463318,228.707733 1006.872131,222.833954 1023.307251,216.950760 
	C1017.477051,202.831665 1005.559753,196.877167 991.445984,200.445816 
	C976.588135,204.202606 967.982178,217.978683 969.554077,235.808044 
	C970.836792,235.490295 972.078735,235.182648 974.054504,234.581512 
z"/>
<path fill="#FFF" opacity="1.000000" stroke="none" 
	d="
M455.239136,187.747742 
	C461.180023,193.502975 464.024109,200.299133 464.054138,208.121552 
	C464.150146,233.120193 464.093231,258.119446 464.086304,283.118439 
	C464.086060,283.914917 463.986542,284.711395 463.917480,285.745056 
	C454.923859,285.745056 446.177277,285.745056 436.854340,285.745056 
	C436.854340,283.866150 436.854340,282.095123 436.854340,280.324127 
	C436.854309,260.658234 436.867493,240.992310 436.850281,221.326431 
	C436.835388,204.278839 423.153931,196.111618 408.041290,204.343094 
	C397.159271,210.270279 391.801178,220.372711 391.014038,232.128372 
	C389.980774,247.560104 390.434601,263.091614 390.257843,278.580292 
	C390.231598,280.879303 390.254242,283.178833 390.254242,285.733032 
	C381.094543,285.733032 372.340729,285.733032 363.272308,285.733032 
	C363.272308,251.603378 363.272308,217.543976 363.272308,183.180511 
	C371.258362,183.180511 379.172882,183.180511 387.510712,183.180511 
	C388.114563,188.497971 388.720093,193.830597 389.482544,200.544907 
	C399.173370,184.996796 412.845459,178.660934 429.406281,178.301361 
	C438.956879,178.094009 447.849762,180.564621 455.239136,187.747742 
z"/>
<path fill="#FFF" opacity="1.000000" stroke="none" 
	d="
M771.056030,209.904053 
	C758.941833,217.788269 753.058960,228.720001 753.006897,242.766312 
	C752.954468,256.912659 752.995300,271.059387 752.995300,285.604309 
	C744.123901,285.604309 735.403503,285.604309 726.318115,285.604309 
	C726.318115,251.722229 726.318115,217.688309 726.318115,183.264328 
	C734.196899,183.264328 742.214050,183.264328 750.551575,183.264328 
	C751.178101,190.440918 751.793335,197.489029 752.357178,203.948349 
	C758.176758,198.458435 763.742981,192.493484 770.050537,187.456833 
	C776.436462,182.357544 783.972473,179.204453 793.055237,177.979675 
	C792.632446,187.165329 792.225708,196.001053 791.874695,203.626541 
	C784.522034,205.812744 777.949646,207.766937 771.056030,209.904053 
z"/>
<path fill="#FFF" opacity="1.000000" stroke="none" 
	d="
M297.961151,247.000000 
	C297.961151,225.548981 297.961151,204.597977 297.961151,183.263199 
	C307.038696,183.263199 315.888824,183.263199 324.997986,183.263199 
	C324.997986,217.400543 324.997986,251.424240 324.997986,285.724457 
	C316.122986,285.724457 307.378845,285.724457 297.961151,285.724457 
	C297.961151,272.977783 297.961151,260.238892 297.961151,247.000000 
z"/>
<path fill="#FFF" opacity="1.000000" stroke="none" 
	d="
M308.899475,131.582855 
	C317.760529,130.472382 324.630798,134.174576 326.966278,140.961243 
	C329.501740,148.329041 326.115387,155.672836 318.672852,158.946838 
	C311.463593,162.118225 301.659363,158.638779 298.085938,151.640701 
	C294.830048,145.264481 297.209839,137.874786 303.992798,133.668808 
	C305.371613,132.813812 307.005402,132.369995 308.899475,131.582855 
z"/>
<path fill="#39db90" opacity="1.000000" stroke="none" 
	d="
M865.083252,227.056854 
	C856.469666,230.083923 848.243347,233.030121 839.976318,235.990891 
	C836.830322,220.945023 845.801331,205.167496 859.630493,200.976624 
	C874.610474,196.437027 887.482910,202.350342 893.257935,216.934891 
	C883.990173,220.283829 874.730408,223.629898 865.083252,227.056854 
z"/>
<path fill="#39db90" opacity="1.000000" stroke="none" 
	d="
M973.687561,234.728271 
	C972.078735,235.182648 970.836792,235.490295 969.554077,235.808044 
	C967.982178,217.978683 976.588135,204.202606 991.445984,200.445816 
	C1005.559753,196.877167 1017.477051,202.831665 1023.307251,216.950760 
	C1006.872131,222.833954 990.463318,228.707733 973.687561,234.728271 
z"/>
</svg>